<svg width="160" height="37" viewBox="0 0 160 37" fill="none" xmlns="http://www.w3.org/2000/svg">
<path d="M2.625 0.125L159.75 0.125V36.875H2.625L19.125 18.5L2.625 0.125Z" fill="url(#paint0_linear_587_20)"/>
<path d="M2.625 0.125L159.75 0.125V36.875H2.625L19.125 18.5L2.625 0.125Z" fill="white" fill-opacity="0.5"/>
<path d="M44.555 12.129C45.347 12.129 45.995 12.249 46.499 12.489C47.015 12.717 47.471 12.987 47.867 13.299C48.107 13.479 48.287 13.503 48.407 13.371C48.539 13.227 48.629 12.897 48.677 12.381H49.091C49.067 12.825 49.049 13.365 49.037 14.001C49.025 14.637 49.019 15.477 49.019 16.521H48.605C48.521 16.005 48.443 15.597 48.371 15.297C48.299 14.985 48.209 14.721 48.101 14.505C48.005 14.289 47.873 14.073 47.705 13.857C47.333 13.365 46.865 13.011 46.301 12.795C45.737 12.567 45.143 12.453 44.519 12.453C43.931 12.453 43.397 12.603 42.917 12.903C42.449 13.191 42.041 13.611 41.693 14.163C41.357 14.715 41.093 15.381 40.901 16.161C40.721 16.941 40.631 17.817 40.631 18.789C40.631 19.797 40.733 20.691 40.937 21.471C41.141 22.239 41.423 22.887 41.783 23.415C42.155 23.943 42.587 24.345 43.079 24.621C43.583 24.885 44.123 25.017 44.699 25.017C45.239 25.017 45.803 24.909 46.391 24.693C46.979 24.477 47.441 24.129 47.777 23.649C48.041 23.301 48.221 22.923 48.317 22.515C48.425 22.107 48.521 21.537 48.605 20.805H49.019C49.019 21.897 49.025 22.779 49.037 23.451C49.049 24.111 49.067 24.669 49.091 25.125H48.677C48.629 24.609 48.545 24.285 48.425 24.153C48.317 24.021 48.131 24.039 47.867 24.207C47.423 24.519 46.949 24.795 46.445 25.035C45.953 25.263 45.317 25.377 44.537 25.377C43.397 25.377 42.395 25.119 41.531 24.603C40.679 24.087 40.013 23.343 39.533 22.371C39.065 21.399 38.831 20.229 38.831 18.861C38.831 17.517 39.077 16.341 39.569 15.333C40.061 14.325 40.733 13.539 41.585 12.975C42.449 12.411 43.439 12.129 44.555 12.129ZM55.2015 15.603C55.9695 15.603 56.6595 15.771 57.2715 16.107C57.8835 16.443 58.3695 16.971 58.7295 17.691C59.1015 18.411 59.2875 19.347 59.2875 20.499C59.2875 21.651 59.1015 22.587 58.7295 23.307C58.3695 24.015 57.8835 24.537 57.2715 24.873C56.6595 25.209 55.9695 25.377 55.2015 25.377C54.4455 25.377 53.7555 25.209 53.1315 24.873C52.5195 24.537 52.0275 24.015 51.6555 23.307C51.2955 22.587 51.1155 21.651 51.1155 20.499C51.1155 19.347 51.2955 18.411 51.6555 17.691C52.0275 16.971 52.5195 16.443 53.1315 16.107C53.7555 15.771 54.4455 15.603 55.2015 15.603ZM55.2015 15.963C54.5175 15.963 53.9535 16.317 53.5095 17.025C53.0775 17.733 52.8615 18.891 52.8615 20.499C52.8615 22.107 53.0775 23.265 53.5095 23.973C53.9535 24.669 54.5175 25.017 55.2015 25.017C55.8855 25.017 56.4435 24.669 56.8755 23.973C57.3195 23.265 57.5415 22.107 57.5415 20.499C57.5415 18.891 57.3195 17.733 56.8755 17.025C56.4435 16.317 55.8855 15.963 55.2015 15.963ZM66.5929 15.603C67.0129 15.603 67.3789 15.663 67.6909 15.783C68.0029 15.903 68.2609 16.071 68.4649 16.287C68.6929 16.527 68.8489 16.839 68.9329 17.223C69.0169 17.607 69.0589 18.081 69.0589 18.645V23.451C69.0589 23.955 69.1609 24.297 69.3649 24.477C69.5809 24.657 69.9349 24.747 70.4269 24.747V25.125C70.2229 25.113 69.9109 25.101 69.4909 25.089C69.0709 25.065 68.6629 25.053 68.2669 25.053C67.8709 25.053 67.4809 25.065 67.0969 25.089C66.7249 25.101 66.4429 25.113 66.2509 25.125V24.747C66.6829 24.747 66.9889 24.657 67.1689 24.477C67.3489 24.297 67.4389 23.955 67.4389 23.451V18.249C67.4389 17.877 67.4149 17.535 67.3669 17.223C67.3189 16.911 67.1989 16.659 67.0069 16.467C66.8149 16.275 66.5029 16.179 66.0709 16.179C65.6029 16.179 65.1829 16.323 64.8109 16.611C64.4509 16.899 64.1629 17.295 63.9469 17.799C63.7429 18.291 63.6409 18.843 63.6409 19.455V23.451C63.6409 23.955 63.7309 24.297 63.9109 24.477C64.0909 24.657 64.3969 24.747 64.8289 24.747V25.125C64.6369 25.113 64.3489 25.101 63.9649 25.089C63.5929 25.065 63.2089 25.053 62.8129 25.053C62.4169 25.053 62.0089 25.065 61.5889 25.089C61.1689 25.101 60.8569 25.113 60.6529 25.125V24.747C61.1449 24.747 61.4929 24.657 61.6969 24.477C61.9129 24.297 62.0209 23.955 62.0209 23.451V17.817C62.0209 17.277 61.9249 16.881 61.7329 16.629C61.5409 16.365 61.1809 16.233 60.6529 16.233V15.855C61.0369 15.891 61.4089 15.909 61.7689 15.909C62.1169 15.909 62.4469 15.891 62.7589 15.855C63.0829 15.807 63.3769 15.741 63.6409 15.657V17.781C63.9529 17.001 64.3789 16.443 64.9189 16.107C65.4589 15.771 66.0169 15.603 66.5929 15.603ZM72.0109 15.603C72.4309 15.603 72.7969 15.663 73.1089 15.783C73.4209 15.903 73.6789 16.071 73.8829 16.287C74.1109 16.527 74.2669 16.839 74.3509 17.223C74.4349 17.607 74.4769 18.081 74.4769 18.645V23.451C74.4769 23.955 74.5789 24.297 74.7829 24.477C74.9989 24.657 75.3529 24.747 75.8449 24.747V25.125C75.6409 25.113 75.3289 25.101 74.9089 25.089C74.4889 25.065 74.0809 25.053 73.6849 25.053C73.2889 25.053 72.8989 25.065 72.5149 25.089C72.1429 25.101 71.8609 25.113 71.6689 25.125V24.747C72.1009 24.747 72.4069 24.657 72.5869 24.477C72.7669 24.297 72.8569 23.955 72.8569 23.451V18.249C72.8569 17.877 72.8329 17.535 72.7849 17.223C72.7369 16.911 72.6169 16.659 72.4249 16.467C72.2329 16.275 71.9209 16.179 71.4889 16.179C71.0209 16.179 70.6009 16.323 70.2289 16.611C69.8689 16.899 69.5809 17.289 69.3649 17.781C69.1609 18.273 69.0589 18.825 69.0589 19.437L69.0049 17.763C69.3289 16.935 69.7669 16.371 70.3189 16.071C70.8709 15.759 71.4349 15.603 72.0109 15.603ZM78.6834 11.355C78.9954 11.355 79.2654 11.469 79.4934 11.697C79.7214 11.925 79.8354 12.195 79.8354 12.507C79.8354 12.819 79.7214 13.089 79.4934 13.317C79.2654 13.545 78.9954 13.659 78.6834 13.659C78.3714 13.659 78.1014 13.545 77.8734 13.317C77.6454 13.089 77.5314 12.819 77.5314 12.507C77.5314 12.195 77.6454 11.925 77.8734 11.697C78.1014 11.469 78.3714 11.355 78.6834 11.355ZM79.6194 15.657V23.451C79.6194 23.955 79.7214 24.297 79.9254 24.477C80.1414 24.657 80.4954 24.747 80.9874 24.747V25.125C80.7834 25.113 80.4714 25.101 80.0514 25.089C79.6434 25.065 79.2294 25.053 78.8094 25.053C78.4014 25.053 77.9874 25.065 77.5674 25.089C77.1474 25.101 76.8354 25.113 76.6314 25.125V24.747C77.1234 24.747 77.4714 24.657 77.6754 24.477C77.8914 24.297 77.9994 23.955 77.9994 23.451V17.817C77.9994 17.277 77.9034 16.881 77.7114 16.629C77.5194 16.365 77.1594 16.233 76.6314 16.233V15.855C77.0154 15.891 77.3874 15.909 77.7474 15.909C78.0954 15.909 78.4254 15.891 78.7374 15.855C79.0614 15.807 79.3554 15.741 79.6194 15.657ZM87.9528 15.603C88.4088 15.603 88.7868 15.663 89.0868 15.783C89.3988 15.903 89.6568 16.071 89.8608 16.287C90.0888 16.527 90.2508 16.827 90.3468 17.187C90.4428 17.547 90.4908 18.033 90.4908 18.645V23.451C90.4908 23.955 90.5928 24.297 90.7968 24.477C91.0128 24.657 91.3668 24.747 91.8588 24.747V25.125C91.6548 25.113 91.3428 25.101 90.9228 25.089C90.5028 25.065 90.0948 25.053 89.6988 25.053C89.3028 25.053 88.9128 25.065 88.5288 25.089C88.1568 25.101 87.8748 25.113 87.6828 25.125V24.747C88.1148 24.747 88.4208 24.657 88.6008 24.477C88.7808 24.297 88.8708 23.955 88.8708 23.451V18.249C88.8708 17.877 88.8408 17.535 88.7808 17.223C88.7208 16.911 88.5828 16.659 88.3668 16.467C88.1628 16.275 87.8448 16.179 87.4128 16.179C86.9088 16.179 86.4648 16.323 86.0808 16.611C85.7088 16.899 85.4148 17.295 85.1988 17.799C84.9948 18.291 84.8928 18.843 84.8928 19.455V23.451C84.8928 23.955 84.9828 24.297 85.1628 24.477C85.3428 24.657 85.6488 24.747 86.0808 24.747V25.125C85.8888 25.113 85.6008 25.101 85.2168 25.089C84.8448 25.065 84.4608 25.053 84.0648 25.053C83.6688 25.053 83.2608 25.065 82.8408 25.089C82.4208 25.101 82.1088 25.113 81.9048 25.125V24.747C82.3968 24.747 82.7448 24.657 82.9488 24.477C83.1648 24.297 83.2728 23.955 83.2728 23.451V17.817C83.2728 17.277 83.1768 16.881 82.9848 16.629C82.7928 16.365 82.4328 16.233 81.9048 16.233V15.855C82.2888 15.891 82.6608 15.909 83.0208 15.909C83.3688 15.909 83.6988 15.891 84.0108 15.855C84.3348 15.807 84.6288 15.741 84.8928 15.657V17.781C85.2048 16.965 85.6368 16.401 86.1888 16.089C86.7528 15.765 87.3408 15.603 87.9528 15.603ZM95.7813 28.509C95.1453 28.509 94.5453 28.443 93.9813 28.311C93.4173 28.179 92.9613 27.969 92.6133 27.681C92.2773 27.405 92.1093 27.051 92.1093 26.619C92.1093 26.199 92.2773 25.839 92.6133 25.539C92.9493 25.239 93.4053 25.011 93.9813 24.855L94.0893 25.143C93.8253 25.227 93.6153 25.395 93.4593 25.647C93.3033 25.899 93.2253 26.181 93.2253 26.493C93.2253 27.045 93.4773 27.465 93.9813 27.753C94.4973 28.053 95.1633 28.203 95.9793 28.203C96.5193 28.203 97.0473 28.131 97.5633 27.987C98.0793 27.855 98.5053 27.627 98.8413 27.303C99.1773 26.979 99.3453 26.553 99.3453 26.025C99.3453 25.629 99.2013 25.305 98.9133 25.053C98.6373 24.789 98.0853 24.657 97.2573 24.657H95.9253C95.5413 24.657 95.1693 24.627 94.8093 24.567C94.4493 24.507 94.1553 24.381 93.9273 24.189C93.6993 23.997 93.5853 23.703 93.5853 23.307C93.5853 22.899 93.7533 22.509 94.0893 22.137C94.4253 21.753 95.0433 21.363 95.9433 20.967L96.1593 21.129C95.7513 21.345 95.3973 21.567 95.0973 21.795C94.7973 22.011 94.6473 22.269 94.6473 22.569C94.6473 22.953 94.9353 23.145 95.5113 23.145H97.7613C98.2653 23.145 98.7273 23.217 99.1473 23.361C99.5793 23.505 99.9273 23.733 100.191 24.045C100.455 24.357 100.587 24.765 100.587 25.269C100.587 25.833 100.407 26.361 100.047 26.853C99.6873 27.345 99.1473 27.741 98.4273 28.041C97.7193 28.353 96.8373 28.509 95.7813 28.509ZM95.8713 21.291C95.2833 21.291 94.7493 21.195 94.2693 21.003C93.7893 20.799 93.4113 20.487 93.1353 20.067C92.8593 19.647 92.7213 19.107 92.7213 18.447C92.7213 17.787 92.8593 17.247 93.1353 16.827C93.4113 16.407 93.7893 16.101 94.2693 15.909C94.7493 15.705 95.2833 15.603 95.8713 15.603C96.4713 15.603 97.0053 15.705 97.4733 15.909C97.9533 16.101 98.3313 16.407 98.6073 16.827C98.8833 17.247 99.0213 17.787 99.0213 18.447C99.0213 19.107 98.8833 19.647 98.6073 20.067C98.3313 20.487 97.9533 20.799 97.4733 21.003C97.0053 21.195 96.4713 21.291 95.8713 21.291ZM95.8713 20.967C96.3273 20.967 96.6813 20.787 96.9333 20.427C97.1973 20.067 97.3293 19.407 97.3293 18.447C97.3293 17.487 97.1973 16.827 96.9333 16.467C96.6813 16.107 96.3273 15.927 95.8713 15.927C95.4273 15.927 95.0733 16.107 94.8093 16.467C94.5453 16.827 94.4133 17.487 94.4133 18.447C94.4133 19.407 94.5453 20.067 94.8093 20.427C95.0733 20.787 95.4273 20.967 95.8713 20.967ZM98.4633 17.097L98.1393 16.971C98.3073 16.563 98.5953 16.203 99.0033 15.891C99.4113 15.579 99.8373 15.423 100.281 15.423C100.593 15.423 100.845 15.513 101.037 15.693C101.229 15.861 101.325 16.119 101.325 16.467C101.325 16.839 101.223 17.103 101.019 17.259C100.827 17.403 100.629 17.475 100.425 17.475C100.245 17.475 100.077 17.415 99.9213 17.295C99.7653 17.163 99.6753 16.959 99.6513 16.683C99.6273 16.407 99.7113 16.053 99.9033 15.621L100.137 15.675C99.6333 15.867 99.2733 16.071 99.0573 16.287C98.8413 16.491 98.6433 16.761 98.4633 17.097ZM110.547 12.183C111.147 12.183 111.603 12.255 111.915 12.399C112.227 12.531 112.503 12.681 112.743 12.849C112.887 12.933 113.001 12.999 113.085 13.047C113.181 13.083 113.271 13.101 113.355 13.101C113.475 13.101 113.559 13.035 113.607 12.903C113.667 12.771 113.715 12.573 113.751 12.309H114.165C114.153 12.513 114.135 12.759 114.111 13.047C114.099 13.323 114.087 13.695 114.075 14.163C114.075 14.619 114.075 15.225 114.075 15.981H113.661C113.625 15.405 113.499 14.853 113.283 14.325C113.067 13.797 112.749 13.365 112.329 13.029C111.921 12.693 111.381 12.525 110.709 12.525C110.073 12.525 109.545 12.717 109.125 13.101C108.717 13.485 108.513 13.989 108.513 14.613C108.513 15.153 108.651 15.609 108.927 15.981C109.203 16.341 109.569 16.671 110.025 16.971C110.493 17.259 110.997 17.571 111.537 17.907C112.161 18.291 112.713 18.675 113.193 19.059C113.685 19.431 114.069 19.845 114.345 20.301C114.633 20.757 114.777 21.309 114.777 21.957C114.777 22.725 114.603 23.361 114.255 23.865C113.907 24.369 113.445 24.747 112.869 24.999C112.293 25.251 111.657 25.377 110.961 25.377C110.325 25.377 109.821 25.305 109.449 25.161C109.077 25.017 108.759 24.867 108.495 24.711C108.231 24.543 108.027 24.459 107.883 24.459C107.763 24.459 107.673 24.525 107.613 24.657C107.565 24.789 107.523 24.987 107.487 25.251H107.073C107.097 24.999 107.109 24.705 107.109 24.369C107.121 24.021 107.127 23.571 107.127 23.019C107.139 22.467 107.145 21.771 107.145 20.931H107.559C107.607 21.651 107.739 22.323 107.955 22.947C108.183 23.571 108.525 24.075 108.981 24.459C109.449 24.831 110.067 25.017 110.835 25.017C111.231 25.017 111.603 24.939 111.951 24.783C112.311 24.615 112.605 24.357 112.833 24.009C113.061 23.649 113.175 23.187 113.175 22.623C113.175 22.131 113.055 21.705 112.815 21.345C112.587 20.973 112.263 20.631 111.843 20.319C111.423 19.995 110.931 19.665 110.367 19.329C109.803 18.981 109.275 18.627 108.783 18.267C108.291 17.907 107.895 17.493 107.595 17.025C107.307 16.545 107.163 15.969 107.163 15.297C107.163 14.589 107.319 14.007 107.631 13.551C107.955 13.083 108.375 12.741 108.891 12.525C109.407 12.297 109.959 12.183 110.547 12.183ZM120.592 15.603C121.36 15.603 122.05 15.771 122.662 16.107C123.274 16.443 123.76 16.971 124.12 17.691C124.492 18.411 124.678 19.347 124.678 20.499C124.678 21.651 124.492 22.587 124.12 23.307C123.76 24.015 123.274 24.537 122.662 24.873C122.05 25.209 121.36 25.377 120.592 25.377C119.836 25.377 119.146 25.209 118.522 24.873C117.91 24.537 117.418 24.015 117.046 23.307C116.686 22.587 116.506 21.651 116.506 20.499C116.506 19.347 116.686 18.411 117.046 17.691C117.418 16.971 117.91 16.443 118.522 16.107C119.146 15.771 119.836 15.603 120.592 15.603ZM120.592 15.963C119.908 15.963 119.344 16.317 118.9 17.025C118.468 17.733 118.252 18.891 118.252 20.499C118.252 22.107 118.468 23.265 118.9 23.973C119.344 24.669 119.908 25.017 120.592 25.017C121.276 25.017 121.834 24.669 122.266 23.973C122.71 23.265 122.932 22.107 122.932 20.499C122.932 18.891 122.71 17.733 122.266 17.025C121.834 16.317 121.276 15.963 120.592 15.963ZM130.453 15.603C131.221 15.603 131.911 15.771 132.523 16.107C133.135 16.443 133.621 16.971 133.981 17.691C134.353 18.411 134.539 19.347 134.539 20.499C134.539 21.651 134.353 22.587 133.981 23.307C133.621 24.015 133.135 24.537 132.523 24.873C131.911 25.209 131.221 25.377 130.453 25.377C129.697 25.377 129.007 25.209 128.383 24.873C127.771 24.537 127.279 24.015 126.907 23.307C126.547 22.587 126.367 21.651 126.367 20.499C126.367 19.347 126.547 18.411 126.907 17.691C127.279 16.971 127.771 16.443 128.383 16.107C129.007 15.771 129.697 15.603 130.453 15.603ZM130.453 15.963C129.769 15.963 129.205 16.317 128.761 17.025C128.329 17.733 128.113 18.891 128.113 20.499C128.113 22.107 128.329 23.265 128.761 23.973C129.205 24.669 129.769 25.017 130.453 25.017C131.137 25.017 131.695 24.669 132.127 23.973C132.571 23.265 132.793 22.107 132.793 20.499C132.793 18.891 132.571 17.733 132.127 17.025C131.695 16.317 131.137 15.963 130.453 15.963ZM141.953 15.603C142.409 15.603 142.787 15.663 143.087 15.783C143.399 15.903 143.657 16.071 143.861 16.287C144.089 16.527 144.251 16.827 144.347 17.187C144.443 17.547 144.491 18.033 144.491 18.645V23.451C144.491 23.955 144.593 24.297 144.797 24.477C145.013 24.657 145.367 24.747 145.859 24.747V25.125C145.655 25.113 145.343 25.101 144.923 25.089C144.503 25.065 144.095 25.053 143.699 25.053C143.303 25.053 142.913 25.065 142.529 25.089C142.157 25.101 141.875 25.113 141.683 25.125V24.747C142.115 24.747 142.421 24.657 142.601 24.477C142.781 24.297 142.871 23.955 142.871 23.451V18.249C142.871 17.877 142.841 17.535 142.781 17.223C142.721 16.911 142.583 16.659 142.367 16.467C142.163 16.275 141.845 16.179 141.413 16.179C140.909 16.179 140.465 16.323 140.081 16.611C139.709 16.899 139.415 17.295 139.199 17.799C138.995 18.291 138.893 18.843 138.893 19.455V23.451C138.893 23.955 138.983 24.297 139.163 24.477C139.343 24.657 139.649 24.747 140.081 24.747V25.125C139.889 25.113 139.601 25.101 139.217 25.089C138.845 25.065 138.461 25.053 138.065 25.053C137.669 25.053 137.261 25.065 136.841 25.089C136.421 25.101 136.109 25.113 135.905 25.125V24.747C136.397 24.747 136.745 24.657 136.949 24.477C137.165 24.297 137.273 23.955 137.273 23.451V17.817C137.273 17.277 137.177 16.881 136.985 16.629C136.793 16.365 136.433 16.233 135.905 16.233V15.855C136.289 15.891 136.661 15.909 137.021 15.909C137.369 15.909 137.699 15.891 138.011 15.855C138.335 15.807 138.629 15.741 138.893 15.657V17.781C139.205 16.965 139.637 16.401 140.189 16.089C140.753 15.765 141.341 15.603 141.953 15.603Z" fill="#0F0F0F"/>
<defs>
<linearGradient id="paint0_linear_587_20" x1="-20.716" y1="-5.83448" x2="174.493" y2="53.6257" gradientUnits="userSpaceOnUse">
<stop offset="0.0481029" stop-color="#ABABAB"/>
<stop offset="0.373627" stop-color="#B7B7B7"/>
<stop offset="0.567448" stop-color="#EDEDED"/>
<stop offset="0.72209" stop-color="#B2B2B2"/>
<stop offset="0.931056" stop-color="#797979"/>
</linearGradient>
</defs>
</svg>
