<svg width="108" height="37" viewBox="0 0 108 37" fill="none" xmlns="http://www.w3.org/2000/svg">
<rect width="108" height="37" fill="#1E1E1E"/>
<g id="Desktop - 17" clip-path="url(#clip0_2_611)">
<rect width="1440" height="3337" transform="translate(-402 -2103.29)" fill="#F0F0F0"/>
<rect id="Rectangle 54" x="-402" y="-1310.29" width="1440" height="2544" fill="#F0F0F0"/>
<g id="Frame 39">
<g id="Frame 37">
<g id="Group - 5 / 12">
<rect x="-309.625" y="-123.356" width="728" height="252" rx="30" fill="#F8F8F8"/>
<g id="Frame 35">
<g id="Frame 33">
<rect x="-45.625" y="-31.3563" width="200" height="128" rx="16" fill="#F8F8F8"/>
<g id="Frame" clip-path="url(#clip1_2_611)">
<g id="Group">
<path id="Vector" fill-rule="evenodd" clip-rule="evenodd" d="M20.7634 25.5411C20.5777 27.0648 19.649 28.2851 18.2104 28.8961C17.4092 29.2365 16.3335 29.4203 15.4821 29.3626C14.1538 29.3121 12.906 28.991 11.7557 28.404C11.3448 28.1942 10.7322 27.7752 10.2618 27.3828C10.1427 27.2837 10.1286 27.2201 10.2074 27.109C10.25 27.0452 10.3284 26.9301 10.5019 26.6774C10.7535 26.3109 10.7849 26.265 10.8132 26.222C10.8937 26.0992 11.0245 26.0885 11.1535 26.1894C11.167 26.1999 11.167 26.1999 11.1773 26.2079C11.1984 26.2242 11.1984 26.2242 11.2484 26.2627C11.2989 26.3019 11.3289 26.325 11.341 26.334C12.5815 27.2999 14.0263 27.8569 15.4848 27.9126C17.5141 27.8851 18.9734 26.978 19.2348 25.5853C19.5223 24.0525 18.3119 22.7284 15.9438 21.9904C15.2031 21.7596 13.331 21.0147 12.9859 20.8134C11.3649 19.8679 10.607 18.6296 10.7147 17.1C10.8798 14.9797 12.8598 13.3983 15.3618 13.3877C16.4806 13.3854 17.5971 13.6166 18.6697 14.0659C19.0495 14.225 19.7276 14.5918 19.9617 14.7656C20.0965 14.864 20.1231 14.9787 20.0459 15.1025C20.0027 15.1743 19.9314 15.288 19.7809 15.5252L19.7793 15.5279C19.5813 15.8403 19.5751 15.85 19.5297 15.9231C19.4512 16.0419 19.359 16.053 19.2175 15.9637C18.0697 15.1972 16.7974 14.8116 15.398 14.7838C13.6559 14.818 12.3501 15.8487 12.2643 17.2528C12.2414 18.5209 13.1982 19.4467 15.265 20.1526C19.4602 21.4928 21.0656 23.0639 20.7634 25.5411ZM15.5824 3.64923C18.3137 3.64923 20.54 6.22583 20.6442 9.4512H10.5208C10.625 6.22583 12.8513 3.64923 15.5824 3.64923ZM29.7176 10.0576C29.7176 9.72268 29.4463 9.4512 29.1117 9.4512H22.55C22.389 5.19252 19.3311 1.79672 15.5824 1.79672C11.8338 1.79672 8.77594 5.19252 8.61495 9.4512L2.04389 9.45132C1.71441 9.45727 1.44914 9.72649 1.44914 10.0576C1.44914 10.0734 1.44974 10.0891 1.45093 10.1046H1.44629L2.38299 30.6309C2.38311 30.688 2.38525 30.7456 2.38953 30.8036C2.39048 30.8167 2.39155 30.8297 2.39262 30.8426L2.39464 30.886L2.3969 30.8882C2.53923 32.3166 3.58199 33.467 4.99988 33.5201L5.00309 33.5232H25.847C25.8569 33.5233 25.8668 33.5234 25.8766 33.5234C25.8865 33.5234 25.8964 33.5233 25.9063 33.5232H25.9506L25.9516 33.5223C27.3942 33.4832 28.5627 32.3167 28.6862 30.8707L28.6869 30.87L28.6878 30.8506C28.689 30.8354 28.6901 30.8203 28.691 30.805C28.6933 30.7686 28.6948 30.7323 28.6954 30.6963L29.7175 10.0889H29.7168C29.7174 10.0785 29.7176 10.0681 29.7176 10.0576ZM99.2056 23.4355C99.6072 22.1333 100.822 21.2651 102.239 21.2651C103.591 21.2651 104.879 22.1783 105.324 23.433L105.354 23.5192H99.1797L99.2056 23.4355ZM106.729 25.3221C106.737 25.3225 106.737 25.3224 106.749 25.3226C106.761 25.3224 106.761 25.3225 106.774 25.3221C107.069 25.3086 107.303 25.0581 107.303 24.7532C107.303 24.7384 107.303 24.7257 107.302 24.7052C107.302 24.7015 107.302 24.694 107.302 24.67C107.302 21.7941 105.034 19.4635 102.237 19.4635C99.4399 19.4635 97.1719 21.7941 97.1719 24.67C97.1719 24.8844 97.1844 25.0982 97.2097 25.3108L97.2111 25.3221L97.219 25.3782C97.3583 26.413 97.8024 27.3627 98.5039 28.1313C98.5036 28.1309 98.5043 28.1316 98.508 28.1356C99.2857 28.9865 100.342 29.5664 101.513 29.7833L101.528 29.7862V29.7847L101.604 29.7973C101.643 29.8039 101.685 29.8104 101.74 29.8189C103.282 30.0032 104.649 29.7823 105.807 29.2027C106.092 29.0599 106.348 28.9023 106.57 28.7358C106.642 28.6822 106.706 28.6304 106.762 28.5818C106.79 28.5568 106.813 28.5357 106.825 28.5236C107.087 28.256 107.103 28.1612 106.945 27.9169C106.772 27.6423 106.619 27.4085 106.488 27.2148C106.442 27.147 106.402 27.0893 106.368 27.0413C106.35 27.015 106.35 27.015 106.338 26.9983C106.333 26.9918 106.333 26.9918 106.33 26.9877L106.329 26.9856C106.186 26.809 106.088 26.7928 105.93 26.9318C105.913 26.9467 105.856 26.99 105.846 27.0008C104.732 27.9841 103.211 28.3004 101.692 27.9844C101.409 27.909 101.145 27.813 100.901 27.6973C99.9494 27.2229 99.2752 26.3777 99.0806 25.3994L99.0653 25.3221H106.729ZM87.1527 23.4355C87.5543 22.1333 88.7686 21.2651 90.1856 21.2651C91.5381 21.2651 92.8259 22.1783 93.2709 23.433L93.3013 23.5192H87.1268L87.1527 23.4355ZM94.6755 25.3221C94.684 25.3225 94.684 25.3224 94.6962 25.3226C94.7083 25.3224 94.7083 25.3225 94.7208 25.3221C95.0164 25.3086 95.2504 25.0581 95.2504 24.7532C95.2504 24.7384 95.2499 24.7257 95.249 24.7052C95.2492 24.7015 95.2492 24.694 95.2492 24.67C95.2492 21.7941 92.9813 19.4635 90.1841 19.4635C87.3871 19.4635 85.1189 21.7941 85.1189 24.67C85.1189 24.8844 85.1316 25.0982 85.1568 25.3108L85.1582 25.3221L85.1661 25.3782C85.3054 26.413 85.7495 27.3627 86.451 28.1313C86.4506 28.1309 86.4513 28.1316 86.455 28.1356C87.2328 28.9865 88.2888 29.5664 89.46 29.7833L89.4753 29.7862V29.7847L89.5514 29.7973C89.5905 29.8039 89.6317 29.8104 89.6871 29.8189C91.2287 30.0032 92.5961 29.7823 93.7538 29.2027C94.0389 29.0599 94.2953 28.9023 94.5174 28.7358C94.5889 28.6822 94.6532 28.6304 94.7088 28.5818C94.7374 28.5568 94.7603 28.5357 94.7724 28.5236C95.0336 28.256 95.0499 28.1612 94.8923 27.9169C94.7188 27.6423 94.5657 27.4085 94.4345 27.2148C94.3886 27.147 94.3487 27.0893 94.3152 27.0413C94.2965 27.015 94.2965 27.015 94.2847 26.9983C94.2801 26.9918 94.2801 26.9918 94.277 26.9877L94.2757 26.9856C94.1328 26.809 94.0351 26.7928 93.8767 26.9318C93.8598 26.9467 93.8034 26.99 93.7932 27.0008C92.6794 27.9841 91.1582 28.3004 89.6392 27.9844C89.3564 27.909 89.0918 27.813 88.8481 27.6973C87.8965 27.2229 87.2223 26.3777 87.0278 25.3994L87.0123 25.3221H94.6755ZM77.954 28.1897C76.0701 28.1897 74.5293 26.7049 74.482 24.8442V24.6691C74.5288 22.8113 76.0701 21.3263 77.954 21.3263C79.8719 21.3263 81.4268 22.8627 81.4268 24.758C81.4268 26.6532 79.8719 28.1897 77.954 28.1897ZM77.9549 19.5058C76.7193 19.5058 75.5387 19.9242 74.5899 20.6915L74.482 20.7786V19.8183C74.482 19.5622 74.4267 19.5058 74.1659 19.5058H72.9533C72.6891 19.5058 72.637 19.558 72.637 19.8183V35.1267C72.637 35.3781 72.696 35.4391 72.9533 35.4391H74.1659C74.4242 35.4391 74.482 35.3794 74.482 35.1267V28.7426L74.5899 28.8297C75.5388 29.5972 76.7194 30.0155 77.9549 30.0155C80.8919 30.0155 83.2727 27.6628 83.2727 24.7606C83.2727 21.8585 80.8919 19.5058 77.9549 19.5058ZM65.4663 28.0724C63.5444 28.0724 61.9865 26.5495 61.9865 24.6703C61.9865 22.7912 63.5446 21.2682 65.4663 21.2682C67.3878 21.2682 68.9459 22.7912 68.9459 24.6703C68.9459 26.5493 67.3879 28.0724 65.4663 28.0724ZM65.4674 19.4635C62.5246 19.4635 60.1394 21.7959 60.1394 24.6729C60.1394 27.5498 62.5246 29.8824 65.4674 29.8824C68.41 29.8824 70.795 27.5498 70.795 24.6729C70.795 21.7959 68.4101 19.4635 65.4674 19.4635ZM53.5904 19.5792C52.5161 19.5792 51.4766 19.9225 50.6142 20.557L50.5094 20.6342V13.5247C50.5094 13.2891 50.4316 13.2121 50.1946 13.2121H48.9253C48.669 13.2121 48.6104 13.2731 48.6104 13.5247V29.7432C48.6104 29.9888 48.6737 30.056 48.9253 30.056H50.1946C50.4301 30.056 50.5094 29.9753 50.5094 29.7432V24.4458C50.5226 22.7781 51.8984 21.4321 53.5904 21.4321C55.2866 21.4321 56.664 22.7847 56.6712 24.4578V29.7432C56.6712 30.0115 56.7162 30.0559 56.9861 30.0559H58.2523C58.5208 30.0559 58.5672 30.0102 58.5672 29.7432V24.4423C58.5572 21.7683 56.3142 19.5792 53.5904 19.5792ZM35.9033 27.1141L35.9004 27.1186C35.7194 27.3912 35.6436 27.5058 35.6012 27.5716C35.4585 27.7828 35.4763 27.8769 35.6941 28.06C36.2026 28.4675 36.8563 28.8955 37.2973 29.1098C38.5243 29.7062 39.8496 30.0215 41.254 30.05C42.1613 30.0955 43.3007 29.881 44.1491 29.5049C45.6852 28.8237 46.6636 27.4961 46.835 25.8608C47.1128 23.2112 45.3785 21.5548 40.9114 20.2199L40.9102 20.2196C38.8289 19.5523 37.8512 18.6653 37.8509 17.4268C37.9122 16.0579 39.1889 15.0353 40.9114 14.9715C42.2989 14.9749 43.5257 15.3412 44.731 16.1123C44.9852 16.2656 45.1024 16.2373 45.2733 16.0169C45.2929 15.9844 45.3476 15.9055 45.576 15.5793L45.5768 15.5783C45.7901 15.2736 45.8603 15.1719 45.8778 15.1418C46.0218 14.8725 46.0012 14.7687 45.7413 14.5854C45.4854 14.4032 44.7644 14.0302 44.352 13.8666C43.2052 13.4118 42.0196 13.1909 40.8396 13.2137C38.1543 13.2717 36.0601 15.0078 35.922 17.2854C35.8344 18.9305 36.6743 20.2533 38.4292 21.2313C38.9212 21.4895 40.7199 22.1654 41.5595 22.4098C43.9467 23.1047 45.1913 24.3832 44.9342 25.8915C44.7006 27.2619 43.2562 28.1733 41.2293 28.2357C39.7594 28.2053 38.2784 27.6698 36.9925 26.7092C36.9861 26.7045 36.9535 26.6804 36.8934 26.6359C36.8089 26.5733 36.8089 26.5732 36.7963 26.5639C36.5342 26.384 36.3799 26.399 36.2199 26.636C36.2006 26.6653 36.0015 26.9663 35.9033 27.1141Z" fill="#EE4D2D"/>
</g>
</g>
</g>
</g>
</g>
</g>
</g>
</g>
<defs>
<clipPath id="clip0_2_611">
<rect width="1440" height="3337" fill="white" transform="translate(-402 -2103.29)"/>
</clipPath>
<clipPath id="clip1_2_611">
<rect width="106.971" height="36" fill="white" transform="translate(0.88916 0.643677)"/>
</clipPath>
</defs>
</svg>
