<svg width="30" height="17" viewBox="0 0 30 17" fill="none" xmlns="http://www.w3.org/2000/svg">
<path id="Vector" d="M14.216 5.71289L1.91705 1.04508C1.81161 0.938594 1.68644 0.854411 1.54877 0.797399C1.4111 0.740386 1.26367 0.711676 1.11501 0.71293C0.966349 0.714185 0.819408 0.745379 0.682691 0.804708C0.545974 0.864036 0.422197 0.950319 0.31852 1.05857C0.214844 1.16681 0.133327 1.29487 0.0786887 1.43534C0.0240501 1.5758 -0.0026262 1.72588 0.000203734 1.87689C0.00303367 2.0279 0.0353136 2.17683 0.0951755 2.31508C0.155037 2.45333 0.241292 2.57815 0.34895 2.6823L14.216 16.3893C14.4259 16.5968 14.7071 16.7129 15 16.7129C15.2929 16.7129 15.5741 16.5968 15.784 16.3893L29.6511 2.6823C29.7587 2.57815 29.845 2.45333 29.9048 2.31508C29.9647 2.17683 29.997 2.0279 29.9998 1.87689C30.0026 1.72588 29.9759 1.5758 29.9213 1.43534C29.8667 1.29487 29.7852 1.16681 29.6815 1.05857C29.5778 0.950319 29.454 0.864036 29.3173 0.804708C29.1806 0.745379 29.0336 0.714185 28.885 0.71293C28.7363 0.711676 28.5889 0.740386 28.4512 0.797399C28.3136 0.854411 28.1884 0.938594 28.083 1.04508L14.216 5.71289Z" fill="#F0F0F0"/>
</svg>
