<svg width="33" height="32" viewBox="0 0 33 32" fill="none" xmlns="http://www.w3.org/2000/svg">
<g id="mail">
<g id="Vector">
<path d="M27.1665 5.33325H5.83317C4.3665 5.33325 3.1665 6.53325 3.1665 7.99992V23.9999C3.1665 25.4666 4.3665 26.6666 5.83317 26.6666H27.1665C28.6332 26.6666 29.8332 25.4666 29.8332 23.9999V7.99992C29.8332 6.53325 28.6332 5.33325 27.1665 5.33325ZM26.6332 10.9999L17.9132 16.4533C17.0465 16.9999 15.9532 16.9999 15.0865 16.4533L6.3665 10.9999C6.03317 10.7866 5.83317 10.4266 5.83317 10.0399C5.83317 9.14659 6.8065 8.61325 7.5665 9.07992L16.4998 14.6666L25.4332 9.07992C26.1932 8.61325 27.1665 9.14659 27.1665 10.0399C27.1665 10.4266 26.9665 10.7866 26.6332 10.9999Z" fill="url(#paint0_linear_363_629)"/>
</g>
</g>
<defs>
<linearGradient id="paint0_linear_363_629" x1="-0.794848" y1="1.87378" x2="35.1243" y2="5.07248" gradientUnits="userSpaceOnUse">
<stop offset="0.0481029" stop-color="#ABABAB"/>
<stop offset="0.373627" stop-color="#B7B7B7"/>
<stop offset="0.567448" stop-color="#EDEDED"/>
<stop offset="0.72209" stop-color="#B2B2B2"/>
<stop offset="0.931056" stop-color="#797979"/>
</linearGradient>
</defs>
</svg>
