<svg width="118" height="116" viewBox="0 0 118 116" fill="none" xmlns="http://www.w3.org/2000/svg">
<path d="M116.359 2.38227C116.303 1.92342 116.095 1.49644 115.768 1.16961C115.442 0.842783 115.015 0.63499 114.556 0.579461C106.727 -0.373542 98.7993 -0.150034 91.0364 1.24256C75.0204 3.98822 59.1867 12.6915 46.911 24.5589C45.7775 25.6365 43.0733 28.1915 41.9833 29.2379C35.5202 36.7082 28.0706 46.6029 23.7418 54.9746C23.116 56.2428 23.7335 57.2064 24.7986 58.1223C25.7912 59.1169 27.6955 61.0006 30.1179 63.423C39.3807 72.7064 49.4909 82.8146 58.8179 92.1415L59.5224 92.8461C60.5026 93.849 61.9034 93.3994 62.9167 92.6803C69.3869 89.0678 75.538 84.9112 81.3033 80.2554C104.775 61.873 120.507 32.5783 116.359 2.38227ZM89.4201 51.0395C79.1958 61.4937 60.8631 53.9199 61.031 39.2798C60.8963 24.6211 79.1337 17.0596 89.4201 27.5201C95.9205 33.9998 95.9205 44.5598 89.4201 51.0395ZM4.92004 60.524C5.00292 60.524 5.08581 60.524 5.1687 60.5032L20.0139 58.7004C18.9094 56.6034 19.2928 54.0629 20.5941 52.0963C21.6302 50.1899 23.3274 47.2723 25.6876 43.6894C29.604 37.5847 34.4323 31.7515 39.0636 26.3182L42.0455 23.4814C17.231 23.2327 4.52839 45.0467 2.89135 58.143C2.65305 59.3387 3.68086 60.5633 4.92004 60.524ZM83.9122 83.4652C77.9615 88.2791 71.609 92.5739 64.9246 96.3025C63.0161 97.6121 60.3492 98.0722 58.2376 96.9242L56.4348 111.769C56.2587 112.951 57.2741 114.119 58.4863 114.09C62.3965 113.516 80.0227 109.979 89.0678 93.0326C91.9026 87.7133 93.5645 80.5787 93.4774 74.8511C90.4449 77.891 87.2519 80.7665 83.9122 83.4652ZM47.512 86.6958C41.343 80.5103 34.2395 73.4151 28.1722 67.3353L26.7631 70.1949C26.1852 71.3573 25.9863 72.6716 26.1945 73.953C26.4026 75.2343 27.0073 76.4181 27.9235 77.3378L39.6024 89.0146C40.5195 89.9349 41.7036 90.5424 42.986 90.7507C44.2685 90.9591 45.5839 90.7576 46.7453 90.175L49.6028 88.7659C48.9107 88.078 48.2372 87.3921 47.512 86.6958ZM28.1514 88.8695C13.845 76.14 1.19215 101.247 0.984934 113.757C0.87718 114.948 1.98373 116.057 3.18146 115.953C15.6561 115.744 40.7027 103.161 28.1514 88.8695Z" fill="url(#paint0_linear_488_127)"/>
<path d="M77.6584 26.7949C61.201 27.2239 61.0994 51.2904 77.6584 51.7649C94.2256 51.28 94.1178 27.2218 77.6584 26.7949Z" fill="url(#paint1_linear_488_127)"/>
<defs>
<linearGradient id="paint0_linear_488_127" x1="-16.2609" y1="-18.8044" x2="140.491" y2="-7.62887" gradientUnits="userSpaceOnUse">
<stop offset="0.0481029" stop-color="#ABABAB"/>
<stop offset="0.373627" stop-color="#B7B7B7"/>
<stop offset="0.567448" stop-color="#EDEDED"/>
<stop offset="0.72209" stop-color="#B2B2B2"/>
<stop offset="0.931056" stop-color="#797979"/>
</linearGradient>
<linearGradient id="paint1_linear_488_127" x1="61.5982" y1="22.7457" x2="95.0549" y2="25.1098" gradientUnits="userSpaceOnUse">
<stop offset="0.0481029" stop-color="#ABABAB"/>
<stop offset="0.373627" stop-color="#B7B7B7"/>
<stop offset="0.567448" stop-color="#EDEDED"/>
<stop offset="0.72209" stop-color="#B2B2B2"/>
<stop offset="0.931056" stop-color="#797979"/>
</linearGradient>
</defs>
</svg>
