<svg width="33" height="32" viewBox="0 0 33 32" fill="none" xmlns="http://www.w3.org/2000/svg">
<g id="phone">
<g id="Vector">
<path d="M26.1288 20.3575L22.7422 19.9708C21.9288 19.8775 21.1288 20.1575 20.5555 20.7308L18.1022 23.1842C14.3288 21.2642 11.2355 18.1842 9.31549 14.3975L11.7822 11.9308C12.3555 11.3575 12.6355 10.5575 12.5422 9.74417L12.1555 6.38417C11.9955 5.0375 10.8622 4.02417 9.50216 4.02417H7.19549C5.68882 4.02417 4.43549 5.2775 4.52882 6.78417C5.23549 18.1708 14.3422 27.2642 25.7155 27.9708C27.2222 28.0642 28.4755 26.8108 28.4755 25.3042V22.9975C28.4888 21.6508 27.4755 20.5175 26.1288 20.3575Z" fill="url(#paint0_linear_363_624)"/>
</g>
</g>
<defs>
<linearGradient id="paint0_linear_363_624" x1="0.965885" y1="0.140122" x2="33.3197" y2="2.44509" gradientUnits="userSpaceOnUse">
<stop offset="0.0481029" stop-color="#ABABAB"/>
<stop offset="0.373627" stop-color="#B7B7B7"/>
<stop offset="0.567448" stop-color="#EDEDED"/>
<stop offset="0.72209" stop-color="#B2B2B2"/>
<stop offset="0.931056" stop-color="#797979"/>
</linearGradient>
</defs>
</svg>
