<svg width="16" height="17" viewBox="0 0 16 17" fill="none" xmlns="http://www.w3.org/2000/svg">
<g id="phone">
<g id="Vector">
<path d="M12.8145 10.6788L11.1212 10.4854C10.7145 10.4388 10.3145 10.5788 10.0279 10.8654L8.80119 12.0921C6.91452 11.1321 5.36785 9.59208 4.40785 7.69875L5.64119 6.46542C5.92785 6.17875 6.06785 5.77875 6.02119 5.37209L5.82785 3.69209C5.74785 3.01875 5.18119 2.51208 4.50119 2.51208H3.34785C2.59452 2.51208 1.96785 3.13875 2.01452 3.89208C2.36785 9.58542 6.92119 14.1321 12.6079 14.4854C13.3612 14.5321 13.9879 13.9054 13.9879 13.1521V11.9988C13.9945 11.3254 13.4879 10.7588 12.8145 10.6788Z" fill="#F0F0F0"/>
</g>
</g>
</svg>
