<svg width="20" height="21" viewBox="0 0 20 21" fill="none" xmlns="http://www.w3.org/2000/svg">
<path d="M16.5599 4.12377C16.5461 4.01877 16.4585 3.96066 16.3861 3.95426C16.3138 3.94793 14.7845 3.82891 14.7845 3.82891C14.7845 3.82891 13.7224 2.72174 13.6058 2.59919C13.4892 2.47671 13.2614 2.51397 13.1729 2.54129C13.1599 2.54532 12.9409 2.6163 12.5786 2.73403C12.2238 1.66203 11.5976 0.676897 10.496 0.676897C10.4656 0.676897 10.4343 0.678191 10.403 0.680061C10.0897 0.24503 9.70165 0.0560303 9.36644 0.0560303C6.80034 0.0560303 5.57439 3.4243 5.19 5.13594C4.19288 5.46037 3.48452 5.69101 3.39404 5.72085C2.83747 5.90417 2.81986 5.92258 2.74678 6.47326C2.69178 6.89016 1.23548 18.7155 1.23548 18.7155L12.5833 20.948L18.7319 19.5514C18.7319 19.5514 16.5734 4.22877 16.5599 4.12377ZM11.9514 2.93771L10.9912 3.24976C10.9915 3.1787 10.9919 3.1088 10.9919 3.03235C10.9919 2.3661 10.9038 1.82967 10.7625 1.40442C11.3301 1.47921 11.7081 2.15732 11.9514 2.93771ZM10.0584 1.53653C10.2162 1.95171 10.3188 2.54755 10.3188 3.35159C10.3188 3.39273 10.3184 3.43034 10.3181 3.46839C9.69363 3.67148 9.01507 3.89198 8.335 4.1132C8.71685 2.56582 9.4326 1.81845 10.0584 1.53653ZM9.29596 0.778732C9.40671 0.778732 9.51829 0.818215 9.62507 0.895383C8.80267 1.30172 7.92117 2.32511 7.54891 4.3688L5.98137 4.87855C6.4174 3.31973 7.45281 0.778732 9.29596 0.778732Z" fill="white"/>
<path d="M16.3861 3.95425C16.3138 3.94793 14.7845 3.8289 14.7845 3.8289C14.7845 3.8289 13.7224 2.72173 13.6058 2.59918C13.5622 2.55358 13.5034 2.53021 13.4418 2.52014L12.5838 20.9479L18.7319 19.5514C18.7319 19.5514 16.5734 4.22877 16.5599 4.12377C16.5461 4.01877 16.4585 3.96066 16.3861 3.95425Z" fill="white"/>
<path d="M10.496 7.52157L9.73788 9.88954C9.73788 9.88954 9.07363 9.51729 8.25939 9.51729C7.06569 9.51729 7.00562 10.3039 7.00562 10.5021C7.00562 11.5836 9.69055 11.998 9.69055 14.5312C9.69055 16.5242 8.48665 17.8076 6.86336 17.8076C4.91541 17.8076 3.91925 16.5347 3.91925 16.5347L4.44083 14.7252C4.44083 14.7252 5.4648 15.6483 6.32884 15.6483C6.89343 15.6483 7.12309 15.1815 7.12309 14.8405C7.12309 13.4298 4.92035 13.3668 4.92035 11.0487C4.92035 9.09765 6.25405 7.20959 8.94624 7.20959C9.98357 7.20959 10.496 7.52157 10.496 7.52157Z" fill="#95BF46"/>
</svg>
