<svg width="42" height="36" viewBox="0 0 42 36" fill="none" xmlns="http://www.w3.org/2000/svg">
<g id="Group 1376">
<path id="test 2" d="M8.96137 23.4734L9.44942 23.2294C12.1337 21.9279 14.0046 21.0331 17.5023 22.0906L24.2537 24.2868C25.6366 24.6936 26.0433 25.9137 25.8806 26.8898C25.8806 27.1338 25.7992 27.2965 25.7179 27.5405C28.4835 26.9711 31.0052 25.4256 34.2588 23.4734C35.235 22.904 36.1297 22.3346 37.2685 21.6839C38.2446 21.1145 39.3021 21.1145 40.1968 21.6839C41.1729 22.2533 41.8237 23.3107 41.8237 24.4495C41.8237 25.507 41.2543 26.4831 40.2782 27.0525C24.5791 36.0815 19.9426 35.1867 15.8755 34.4546C14.0046 34.0479 12.2151 33.7226 9.28674 34.536V24.7749C9.28674 24.2868 9.12405 23.8801 8.96137 23.4734ZM6.60244 36.0001H1.7219C0.827131 36.0001 0.176392 35.2681 0.176392 34.3733V24.7749C0.176392 23.8801 0.908473 23.2294 1.7219 23.2294H6.60244C7.41586 23.2294 8.14794 23.8801 8.14794 24.7749V34.3733C8.0666 35.2681 7.41586 36.0001 6.60244 36.0001ZM4.16217 29.1674C3.18606 29.1674 2.29129 28.354 2.29129 27.2965C2.29129 26.3204 3.18606 25.4256 4.16217 25.4256C5.13828 25.4256 6.03304 26.3204 6.03304 27.2965C6.03304 28.354 5.13828 29.1674 4.16217 29.1674ZM4.16217 26.6458C3.75546 26.6458 3.51143 26.9711 3.51143 27.2965C3.51143 27.7032 3.75546 28.0286 4.16217 28.0286C4.56888 28.0286 4.81291 27.7032 4.81291 27.2965C4.81291 26.9711 4.56888 26.6458 4.16217 26.6458Z" fill="url(#paint0_linear_490_142)"/>
<path id="test 3" d="M23.7732 21.1143C23.7732 21.1957 23.8545 21.1957 24.0172 21.1957C24.0985 21.1957 24.1799 21.1957 24.2612 21.1143C24.3426 21.1143 24.3426 21.1143 24.4239 21.033C31.5007 15.8271 35.3238 9.72639 34.5917 4.84585C34.2663 2.64961 32.8835 1.02276 31.0126 0.290679C28.8164 -0.441402 26.2134 0.209337 23.9359 2.2429C21.5769 0.209337 19.0553 -0.441402 16.8591 0.290679C14.9882 0.941418 13.7681 2.64961 13.3613 4.84585C12.6293 9.72639 16.4524 15.7457 23.6105 21.033C23.6918 21.1143 23.6918 21.1143 23.7732 21.1143Z" fill="url(#paint1_linear_490_142)"/>
</g>
<defs>
<linearGradient id="paint0_linear_490_142" x1="-6.01034" y1="18.866" x2="48.3313" y2="29.8021" gradientUnits="userSpaceOnUse">
<stop offset="0.0481029" stop-color="#ABABAB"/>
<stop offset="0.373627" stop-color="#B7B7B7"/>
<stop offset="0.567448" stop-color="#EDEDED"/>
<stop offset="0.72209" stop-color="#B2B2B2"/>
<stop offset="0.931056" stop-color="#797979"/>
</linearGradient>
<linearGradient id="paint1_linear_490_142" x1="10.0923" y1="-3.43714" x2="39.0074" y2="-1.35652" gradientUnits="userSpaceOnUse">
<stop offset="0.0481029" stop-color="#ABABAB"/>
<stop offset="0.373627" stop-color="#B7B7B7"/>
<stop offset="0.567448" stop-color="#EDEDED"/>
<stop offset="0.72209" stop-color="#B2B2B2"/>
<stop offset="0.931056" stop-color="#797979"/>
</linearGradient>
</defs>
</svg>
