<svg width="174" height="144" viewBox="0 0 174 144" fill="none" xmlns="http://www.w3.org/2000/svg">
<path d="M90.6089 84.4264L173.745 83.6261C173.812 103.688 157.604 120.107 137.543 120.3L90.7307 120.751L90.6089 84.4264Z" fill="url(#paint0_linear_484_15)"/>
<path d="M90.609 120.522L90.6094 2.56697e-06C110.671 0.125969 126.933 16.4912 126.933 36.5528L126.933 120.75L90.609 120.522Z" fill="url(#paint1_linear_484_15)"/>
<path d="M83.2575 59.5758L0.121703 60.3761C0.0544634 40.3146 16.2623 23.8949 36.323 23.7017L83.1358 23.2509L83.2575 59.5758Z" fill="url(#paint2_linear_484_15)"/>
<path d="M83.2578 23.4776L83.2574 144C63.1962 143.874 46.9334 127.509 46.9334 107.447L46.9334 23.2496L83.2578 23.4776Z" fill="url(#paint3_linear_484_15)"/>
<defs>
<linearGradient id="paint0_linear_484_15" x1="132.177" y1="84.0261" x2="132.527" y2="120.349" gradientUnits="userSpaceOnUse">
<stop stop-color="#949494"/>
<stop offset="0.503125" stop-color="#EDF1F6"/>
<stop offset="1" stop-color="#A3A3A3"/>
</linearGradient>
<linearGradient id="paint1_linear_484_15" x1="90.609" y1="60.2612" x2="126.933" y2="60.2612" gradientUnits="userSpaceOnUse">
<stop stop-color="#949494"/>
<stop offset="0.503125" stop-color="#EDF1F6"/>
<stop offset="1" stop-color="#A3A3A3"/>
</linearGradient>
<linearGradient id="paint2_linear_484_15" x1="41.6896" y1="59.9761" x2="41.3398" y2="23.6534" gradientUnits="userSpaceOnUse">
<stop stop-color="#949494"/>
<stop offset="0.503125" stop-color="#EDF1F6"/>
<stop offset="1" stop-color="#A3A3A3"/>
</linearGradient>
<linearGradient id="paint3_linear_484_15" x1="83.2578" y1="83.7388" x2="46.9334" y2="83.7388" gradientUnits="userSpaceOnUse">
<stop stop-color="#949494"/>
<stop offset="0.503125" stop-color="#EDF1F6"/>
<stop offset="1" stop-color="#A3A3A3"/>
</linearGradient>
</defs>
</svg>
