<svg xmlns="http://www.w3.org/2000/svg" width="210" height="210" fill="none" viewBox="0 0 210 210"><circle cx="105" cy="105" r="90" fill="#000"/><circle cx="105" cy="105" r="103" stroke="#000" stroke-width="4"/><path fill="#fff" d="M58.72 86.32C59.3333 86.32 59.7867 86.5067 60.08 86.88C60.3733 87.2533 60.52 87.7067 60.52 88.24C60.52 88.8533 60.3333 89.4133 59.96 89.92C59.6133 90.4 59.1733 90.8 58.64 91.12C57.9733 91.5467 57.1067 91.88 56.04 92.12C55 92.3333 53.76 92.44 52.32 92.44C51.2 92.44 50.08 92.3867 48.96 92.28C47.8667 92.1467 46.7867 92 45.72 91.84C44.6533 91.68 43.6 91.5467 42.56 91.44C41.52 91.3067 40.4933 91.24 39.48 91.24C38.6533 91.24 37.8 91.28 36.92 91.36C36.0667 91.44 35.4267 91.6267 35 91.92C35.2133 92.1867 35.3867 92.5467 35.52 93C35.6533 93.4267 35.72 93.84 35.72 94.24C35.72 94.7733 35.56 95.2933 35.24 95.8C34.92 96.3067 34.4133 96.56 33.72 96.56C33.1333 96.56 32.6933 96.3733 32.4 96C32.1067 95.6267 31.96 95.1467 31.96 94.56C31.96 94.0267 32.1067 93.48 32.4 92.92C32.6933 92.3333 33.2533 91.84 34.08 91.44C34.6933 91.1467 35.3467 90.9333 36.04 90.8C36.76 90.6667 37.4267 90.5867 38.04 90.56C38.68 90.5333 39.1467 90.52 39.44 90.52C41.04 90.52 42.5467 90.6133 43.96 90.8C45.3733 90.9867 46.7733 91.1733 48.16 91.36C49.5733 91.5467 51.0533 91.64 52.6 91.64C53.8267 91.64 54.8533 91.5733 55.68 91.44C56.5333 91.28 57.2933 91.0133 57.96 90.64L57.92 90.92C57.6533 90.6533 57.3867 90.32 57.12 89.92C56.88 89.4933 56.76 89.0267 56.76 88.52C56.76 87.9867 56.92 87.4933 57.24 87.04C57.56 86.56 58.0533 86.32 58.72 86.32ZM44.72 91.36C44.72 91.36 44.84 91.3733 45.08 91.4C45.32 91.4267 45.6133 91.4667 45.96 91.52C46.3333 91.5733 46.6933 91.6267 47.04 91.68C47.4133 91.7333 47.72 91.7733 47.96 91.8C48.2 91.8267 48.32 91.84 48.32 91.84L42.32 114.36C42.0533 115.373 41.9467 116.16 42 116.72C42.0533 117.253 42.3333 117.627 42.84 117.84C43.3733 118.053 44.2 118.173 45.32 118.2L45.16 119C44.4667 118.947 43.5867 118.92 42.52 118.92C41.4533 118.893 40.3467 118.88 39.2 118.88C38.0533 118.88 36.9467 118.893 35.88 118.92C34.84 118.92 34 118.947 33.36 119L33.52 118.2C34.64 118.147 35.5067 118.013 36.12 117.8C36.76 117.56 37.2533 117.173 37.6 116.64C37.9733 116.08 38.3067 115.32 38.6 114.36L44.72 91.36ZM55.2228 119H51.7428L56.5428 101.84C56.8095 100.933 56.8895 100.293 56.7828 99.92C56.7028 99.5467 56.4361 99.36 55.9828 99.36C55.3961 99.36 54.8628 99.6667 54.3828 100.28C53.9028 100.893 53.3961 101.947 52.8628 103.44L52.3428 104.92H51.5828L52.5828 102C52.9828 100.88 53.4495 100.027 53.9828 99.44C54.5428 98.8533 55.1161 98.4533 55.7028 98.24C56.3161 98 56.8895 97.88 57.4228 97.88C58.2228 97.88 58.7828 98.0533 59.1028 98.4C59.4495 98.7467 59.6361 99.2 59.6628 99.76C59.7161 100.32 59.6761 100.933 59.5428 101.6C59.4361 102.24 59.3028 102.867 59.1428 103.48L55.2228 119ZM65.5028 98.88C64.8895 98.88 64.2495 99.1733 63.5828 99.76C62.9428 100.32 62.2761 101.147 61.5828 102.24C60.9161 103.307 60.2361 104.6 59.5428 106.12C58.8761 107.613 58.2095 109.28 57.5428 111.12C56.9028 112.96 56.2761 114.947 55.6628 117.08L56.6628 111.96C57.5428 109.347 58.3561 107.147 59.1028 105.36C59.8761 103.573 60.6361 102.133 61.3828 101.04C62.1295 99.92 62.8895 99.12 63.6628 98.64C64.4628 98.1333 65.3028 97.88 66.1828 97.88C66.9295 97.88 67.5028 98.0933 67.9028 98.52C68.3295 98.9467 68.5428 99.4933 68.5428 100.16C68.5428 100.693 68.4095 101.187 68.1428 101.64C67.8761 102.067 67.5295 102.413 67.1028 102.68C66.7028 102.92 66.2495 103.04 65.7428 103.04C65.2895 103.04 64.9028 102.92 64.5828 102.68C64.2895 102.413 64.1428 102.053 64.1428 101.6C64.1428 101.173 64.2228 100.8 64.3828 100.48C64.5428 100.133 64.7561 99.84 65.0228 99.6C65.2895 99.36 65.5961 99.1733 65.9428 99.04C65.8895 98.9867 65.8228 98.9467 65.7428 98.92C65.6895 98.8933 65.6095 98.88 65.5028 98.88ZM71.9128 118.28C72.5528 118.28 73.2861 117.88 74.1128 117.08C74.9395 116.253 75.7795 115.147 76.6328 113.76C77.4861 112.373 78.2728 110.8 78.9928 109.04C79.7128 107.28 80.2861 105.453 80.7128 103.56L80.0328 107.88C79.0195 110.707 78.0061 112.987 76.9928 114.72C75.9795 116.427 74.9528 117.667 73.9128 118.44C72.8728 119.187 71.8195 119.56 70.7528 119.56C69.4995 119.56 68.5528 119.107 67.9128 118.2C67.2995 117.293 66.9928 116.133 66.9928 114.72C66.9928 113.44 67.2061 112.053 67.6328 110.56C68.0595 109.04 68.6461 107.533 69.3928 106.04C70.1661 104.547 71.0461 103.187 72.0328 101.96C73.0195 100.733 74.0861 99.7467 75.2328 99C76.4061 98.2533 77.5928 97.88 78.7928 97.88C79.7261 97.88 80.4328 98.3467 80.9128 99.28C81.4195 100.187 81.5261 101.467 81.2328 103.12L80.7928 103.36C80.9795 101.947 80.8861 100.813 80.5128 99.96C80.1395 99.08 79.5261 98.64 78.6728 98.64C77.9795 98.64 77.2461 98.9867 76.4728 99.68C75.7261 100.347 74.9928 101.267 74.2728 102.44C73.5795 103.587 72.9395 104.88 72.3528 106.32C71.7928 107.76 71.3395 109.253 70.9928 110.8C70.6728 112.32 70.5128 113.787 70.5128 115.2C70.5128 116.347 70.6328 117.147 70.8728 117.6C71.1395 118.053 71.4861 118.28 71.9128 118.28ZM81.9928 98.44C82.6328 98.4133 83.2728 98.36 83.9128 98.28C84.5528 98.2 85.1395 98.0667 85.6728 97.88L80.6728 115.56C80.6195 115.8 80.5395 116.12 80.4328 116.52C80.3528 116.893 80.3528 117.24 80.4328 117.56C80.5395 117.88 80.8195 118.04 81.2728 118.04C81.8061 118.04 82.3261 117.747 82.8328 117.16C83.3395 116.573 83.8461 115.507 84.3528 113.96L84.8328 112.48H85.5928L84.5928 115.4C84.2195 116.467 83.7661 117.307 83.2328 117.92C82.7261 118.507 82.1928 118.92 81.6328 119.16C81.0728 119.427 80.5261 119.56 79.9928 119.56C78.9528 119.56 78.2195 119.213 77.7928 118.52C77.4461 117.907 77.3528 117.2 77.5128 116.4C77.6728 115.573 77.8595 114.747 78.0728 113.92L81.9928 98.44ZM102.33 115.6C102.144 116.213 102.064 116.787 102.09 117.32C102.144 117.827 102.464 118.08 103.05 118.08C103.584 118.08 104.077 117.787 104.53 117.2C104.984 116.587 105.464 115.52 105.97 114L106.45 112.52H107.21L106.29 115.44C105.97 116.507 105.544 117.347 105.01 117.96C104.477 118.547 103.917 118.96 103.33 119.2C102.744 119.44 102.184 119.56 101.65 119.56C100.05 119.56 99.2103 118.8 99.1303 117.28C99.1036 116.853 99.1303 116.36 99.2103 115.8C99.317 115.24 99.4636 114.627 99.6503 113.96L105.41 92.32C105.65 91.4133 105.61 90.7467 105.29 90.32C104.97 89.8933 104.157 89.68 102.85 89.68L103.09 88.84C104.557 88.8133 105.85 88.6667 106.97 88.4C108.09 88.1067 109.157 87.7067 110.17 87.2L102.33 115.6ZM93.3703 118.28C94.037 118.28 94.7836 117.893 95.6103 117.12C96.4636 116.32 97.317 115.253 98.1703 113.92C99.0503 112.56 99.8503 111.027 100.57 109.32C101.317 107.587 101.904 105.8 102.33 103.96L101.73 108.28C100.69 111.027 99.6503 113.227 98.6103 114.88C97.597 116.533 96.557 117.733 95.4903 118.48C94.4503 119.2 93.357 119.56 92.2103 119.56C91.3836 119.56 90.6503 119.373 90.0103 119C89.397 118.6 88.917 118.013 88.5703 117.24C88.2236 116.467 88.0503 115.48 88.0503 114.28C88.0503 113 88.2503 111.627 88.6503 110.16C89.077 108.667 89.677 107.2 90.4503 105.76C91.2236 104.32 92.1436 103.013 93.2103 101.84C94.3036 100.64 95.5036 99.68 96.8103 98.96C98.117 98.24 99.5036 97.88 100.97 97.88C101.584 97.88 102.157 98.12 102.69 98.6C103.224 99.0533 103.517 99.7467 103.57 100.68L103.25 101.48C103.144 100.52 102.877 99.84 102.45 99.44C102.024 99.0133 101.544 98.8 101.01 98.8C99.997 98.8 99.0103 99.1467 98.0503 99.84C97.117 100.533 96.2636 101.453 95.4903 102.6C94.717 103.747 94.037 105.027 93.4503 106.44C92.8636 107.827 92.4103 109.253 92.0903 110.72C91.7703 112.16 91.6103 113.52 91.6103 114.8C91.6103 115.973 91.757 116.853 92.0503 117.44C92.3436 118 92.7836 118.28 93.3703 118.28ZM113.33 115.6C113.117 116.373 113.05 116.987 113.13 117.44C113.21 117.867 113.503 118.08 114.01 118.08C114.543 118.08 115.037 117.787 115.49 117.2C115.97 116.587 116.477 115.52 117.01 114L117.53 112.52H118.29L117.29 115.44C116.943 116.453 116.517 117.267 116.01 117.88C115.53 118.467 114.997 118.893 114.41 119.16C113.823 119.427 113.183 119.56 112.49 119.56C111.61 119.56 110.957 119.387 110.53 119.04C110.13 118.72 109.877 118.28 109.77 117.72C109.69 117.16 109.703 116.56 109.81 115.92C109.943 115.253 110.103 114.6 110.29 113.96L116.81 92.32C117.077 91.4133 117.05 90.7467 116.73 90.32C116.41 89.8933 115.597 89.68 114.29 89.68L114.57 88.84C116.037 88.8133 117.33 88.6667 118.45 88.4C119.57 88.1067 120.65 87.7067 121.69 87.2L113.33 115.6ZM136.224 105.16C135.264 107.827 134.344 110.08 133.464 111.92C132.584 113.76 131.704 115.24 130.824 116.36C129.97 117.48 129.09 118.293 128.184 118.8C127.304 119.307 126.384 119.56 125.424 119.56C124.25 119.56 123.397 119.293 122.864 118.76C122.33 118.227 122.064 117.507 122.064 116.6C122.064 115.693 122.25 114.667 122.624 113.52L126.504 101.84C126.77 101.04 126.864 100.427 126.784 100C126.704 99.5733 126.397 99.36 125.864 99.36C125.357 99.36 124.85 99.64 124.344 100.2C123.864 100.76 123.344 101.84 122.784 103.44L122.264 104.92H121.504L122.504 102C122.904 100.88 123.37 100.027 123.904 99.44C124.464 98.8533 125.037 98.4533 125.624 98.24C126.237 98 126.81 97.88 127.344 97.88C128.517 97.88 129.29 98.16 129.664 98.72C130.064 99.2533 130.21 99.9467 130.104 100.8C130.024 101.653 129.824 102.547 129.504 103.48L125.704 114.92C124.957 117.16 125.25 118.28 126.584 118.28C127.224 118.28 127.904 118 128.624 117.44C129.344 116.853 130.077 116.027 130.824 114.96C131.57 113.867 132.304 112.573 133.024 111.08C133.77 109.56 134.477 107.88 135.144 106.04C135.837 104.173 136.464 102.173 137.024 100.04L136.224 105.16ZM136.104 115.6C135.917 116.32 135.824 116.92 135.824 117.4C135.85 117.853 136.13 118.08 136.664 118.08C137.25 118.08 137.784 117.773 138.264 117.16C138.77 116.52 139.277 115.467 139.784 114L140.304 112.52H141.064L140.064 115.44C139.69 116.56 139.224 117.413 138.664 118C138.13 118.587 137.557 118.987 136.944 119.2C136.357 119.44 135.784 119.56 135.224 119.56C134.797 119.56 134.397 119.467 134.024 119.28C133.65 119.093 133.37 118.827 133.184 118.48C132.97 118.027 132.89 117.453 132.944 116.76C133.024 116.067 133.21 115.133 133.504 113.96L137.424 98.44C138.09 98.4133 138.73 98.36 139.344 98.28C139.984 98.2 140.557 98.0667 141.064 97.88L136.104 115.6ZM155.919 115.88C156.026 116.573 156.186 117.053 156.399 117.32C156.639 117.587 156.932 117.72 157.279 117.72C157.679 117.72 158.092 117.493 158.519 117.04C158.946 116.56 159.426 115.56 159.959 114.04L160.479 112.56H161.239L160.239 115.48C159.866 116.547 159.426 117.373 158.919 117.96C158.439 118.547 157.919 118.96 157.359 119.2C156.826 119.44 156.266 119.56 155.679 119.56C154.852 119.56 154.132 119.293 153.519 118.76C152.906 118.227 152.519 117.267 152.359 115.88L150.759 101.56C150.652 100.867 150.479 100.387 150.239 100.12C150.026 99.8533 149.746 99.72 149.399 99.72C149.132 99.72 148.852 99.8133 148.559 100C148.292 100.187 148.012 100.547 147.719 101.08C147.426 101.613 147.092 102.387 146.719 103.4L146.199 104.88H145.439L146.439 101.96C146.839 100.893 147.279 100.067 147.759 99.48C148.239 98.8933 148.759 98.48 149.319 98.24C149.879 98 150.439 97.88 150.999 97.88C151.932 97.88 152.679 98.1467 153.239 98.68C153.799 99.1867 154.159 100.147 154.319 101.56L155.919 115.88ZM159.279 100.32C158.452 101.067 157.732 101.933 157.119 102.92C156.506 103.907 155.986 104.907 155.559 105.92C155.132 106.907 154.772 107.813 154.479 108.64C154.479 108.64 154.346 108.64 154.079 108.64C153.812 108.613 153.679 108.6 153.679 108.6C153.866 108.067 154.079 107.48 154.319 106.84C154.559 106.173 154.852 105.48 155.199 104.76C155.546 104.04 155.959 103.307 156.439 102.56C156.946 101.787 157.519 101.04 158.159 100.32C158.932 99.44 159.626 98.8133 160.239 98.44C160.852 98.0667 161.492 97.88 162.159 97.88C162.666 97.88 163.079 98.0133 163.399 98.28C163.746 98.5467 163.919 98.9067 163.919 99.36C163.919 99.8667 163.719 100.32 163.319 100.72C162.946 101.093 162.439 101.28 161.799 101.28C161.212 101.28 160.706 101.173 160.279 100.96C159.852 100.72 159.519 100.507 159.279 100.32ZM146.279 117.12C147.532 115.973 148.639 114.627 149.599 113.08C150.559 111.533 151.292 110.107 151.799 108.8C151.799 108.8 151.906 108.827 152.119 108.88C152.359 108.933 152.479 108.96 152.479 108.96C152.212 109.68 151.866 110.48 151.439 111.36C151.039 112.24 150.519 113.16 149.879 114.12C149.239 115.08 148.452 116.067 147.519 117.08C146.719 117.907 145.999 118.533 145.359 118.96C144.719 119.36 144.092 119.56 143.479 119.56C142.892 119.56 142.452 119.427 142.159 119.16C141.839 118.893 141.679 118.533 141.679 118.08C141.679 117.573 141.879 117.133 142.279 116.76C142.679 116.36 143.172 116.16 143.759 116.16C144.372 116.16 144.879 116.267 145.279 116.48C145.679 116.693 146.012 116.907 146.279 117.12ZM167.454 109.92C168.947 109.413 170.294 108.92 171.494 108.44C172.72 107.933 173.694 107.4 174.414 106.84C175.374 106.067 176.134 105.133 176.694 104.04C177.254 102.947 177.534 101.747 177.534 100.44C177.534 99.6667 177.48 99.1733 177.374 98.96C177.267 98.7467 177.107 98.64 176.894 98.64C176.227 98.64 175.507 98.9333 174.734 99.52C173.96 100.107 173.2 100.92 172.454 101.96C171.707 102.973 171.014 104.133 170.374 105.44C169.76 106.747 169.267 108.147 168.894 109.64C168.52 111.107 168.334 112.573 168.334 114.04C168.334 115.4 168.587 116.387 169.094 117C169.6 117.587 170.267 117.88 171.094 117.88C172.054 117.88 173.067 117.587 174.134 117C175.2 116.413 176.24 115.373 177.254 113.88L177.894 114.2C177.387 115.08 176.72 115.933 175.894 116.76C175.067 117.587 174.134 118.267 173.094 118.8C172.08 119.307 171 119.56 169.854 119.56C168.787 119.56 167.854 119.347 167.054 118.92C166.254 118.493 165.64 117.867 165.214 117.04C164.787 116.187 164.574 115.147 164.574 113.92C164.574 112.773 164.787 111.493 165.214 110.08C165.64 108.64 166.24 107.213 167.014 105.8C167.814 104.36 168.76 103.04 169.854 101.84C170.947 100.64 172.16 99.68 173.494 98.96C174.827 98.24 176.254 97.88 177.774 97.88C178.6 97.88 179.294 98.1067 179.854 98.56C180.44 98.9867 180.734 99.64 180.734 100.52C180.734 101.587 180.414 102.587 179.774 103.52C179.16 104.427 178.334 105.267 177.294 106.04C176.28 106.787 175.174 107.453 173.974 108.04C172.774 108.627 171.6 109.133 170.454 109.56C169.307 109.987 168.294 110.333 167.414 110.6L167.454 109.92Z"/><g clip-path="url(#clip0_54_90)"><path fill="#fff" d="M104.995 48.7308C105.034 48.9568 105.769 53.2741 105.769 54.9231C105.769 57.4376 104.433 59.2308 102.457 59.952L103.077 71.3991C103.111 72.0578 102.587 72.6154 101.923 72.6154H98.8462C98.1875 72.6154 97.6587 72.0626 97.6923 71.3991L98.3125 59.952C96.3317 59.2308 95 57.4328 95 54.9231C95 53.2693 95.7356 48.9568 95.774 48.7308C95.9279 47.7549 97.9519 47.7405 98.0769 48.7837V55.5722C98.1394 55.7356 98.8029 55.726 98.8462 55.5722C98.9135 54.3558 99.226 48.8799 99.2308 48.7549C99.3894 47.7549 101.38 47.7549 101.534 48.7549C101.543 48.8847 101.851 54.3558 101.918 55.5722C101.962 55.726 102.63 55.7356 102.687 55.5722V48.7837C102.812 47.7453 104.841 47.7549 104.995 48.7308ZM110.726 62.4664L110.005 71.3655C109.947 72.0385 110.481 72.6154 111.154 72.6154H113.846C114.486 72.6154 115 72.101 115 71.4616V49.1539C115 48.5193 114.486 48.0001 113.846 48.0001C109.88 48.0001 103.202 56.5818 110.726 62.4664Z"/></g><defs><clipPath id="clip0_54_90"><rect width="20" height="24.615" fill="#fff" transform="translate(95 48)"/></clipPath></defs></svg>