<svg xmlns="http://www.w3.org/2000/svg" width="44" height="37" viewBox="0 0 44 37" fill="none">
  <path d="M22.6521 21.8196L43.436 21.6195C43.4528 26.6349 39.4009 30.7398 34.3857 30.7881L22.6825 30.9008L22.6521 21.8196Z" fill="url(#paint0_linear_297_1952)"/>
  <path d="M22.6523 30.8435L22.6524 0.712891C27.6677 0.744383 31.7334 4.83569 31.7334 9.85108L31.7334 30.9005L22.6523 30.8435Z" fill="url(#paint1_linear_297_1952)"/>
  <path d="M20.8142 15.6068L0.0302731 15.8069C0.0134632 10.7915 4.06543 6.68662 9.08059 6.63832L20.7838 6.52561L20.8142 15.6068Z" fill="url(#paint2_linear_297_1952)"/>
  <path d="M20.8145 6.5823L20.8144 36.7129C15.7991 36.6814 11.7334 32.5901 11.7334 27.5747L11.7334 6.52528L20.8145 6.5823Z" fill="url(#paint3_linear_297_1952)"/>
  <defs>
    <linearGradient id="paint0_linear_297_1952" x1="33.0441" y1="21.7195" x2="33.1315" y2="30.8001" gradientUnits="userSpaceOnUse">
      <stop stop-color="#949494"/>
      <stop offset="0.503125" stop-color="#EDF1F6"/>
      <stop offset="1" stop-color="#A3A3A3"/>
    </linearGradient>
    <linearGradient id="paint1_linear_297_1952" x1="22.6523" y1="15.7782" x2="31.7334" y2="15.7782" gradientUnits="userSpaceOnUse">
      <stop stop-color="#949494"/>
      <stop offset="0.503125" stop-color="#EDF1F6"/>
      <stop offset="1" stop-color="#A3A3A3"/>
    </linearGradient>
    <linearGradient id="paint2_linear_297_1952" x1="10.4223" y1="15.7069" x2="10.3348" y2="6.62624" gradientUnits="userSpaceOnUse">
      <stop stop-color="#949494"/>
      <stop offset="0.503125" stop-color="#EDF1F6"/>
      <stop offset="1" stop-color="#A3A3A3"/>
    </linearGradient>
    <linearGradient id="paint3_linear_297_1952" x1="20.8145" y1="21.6476" x2="11.7334" y2="21.6476" gradientUnits="userSpaceOnUse">
      <stop stop-color="#949494"/>
      <stop offset="0.503125" stop-color="#EDF1F6"/>
      <stop offset="1" stop-color="#A3A3A3"/>
    </linearGradient>
  </defs>
</svg>