<svg width="188" height="156" viewBox="0 0 188 156" fill="none" xmlns="http://www.w3.org/2000/svg">
<g id="Group 2" opacity="0.15">
<path id="Vector 13" d="M97.9541 91.1885L187.385 90.3276C187.458 111.908 170.022 129.571 148.443 129.779L98.0851 130.264L97.9541 91.1885Z" fill="url(#paint0_linear_297_2099)"/>
<path id="Vector 14" d="M97.9541 130.018L97.9545 0.369143C119.535 0.504648 137.029 18.1091 137.029 39.6898L137.029 130.263L97.9541 130.018Z" fill="url(#paint1_linear_297_2099)"/>
<path id="Vector 15" d="M90.0459 64.4561L0.614745 65.317C0.542414 43.7364 17.9776 26.0734 39.5573 25.8656L89.9149 25.3806L90.0459 64.4561Z" fill="url(#paint2_linear_297_2099)"/>
<path id="Vector 16" d="M90.0459 25.6246L90.0455 155.273C68.4652 155.138 50.9709 137.533 50.9709 115.953L50.9709 25.3792L90.0459 25.6246Z" fill="url(#paint3_linear_297_2099)"/>
</g>
<defs>
<linearGradient id="paint0_linear_297_2099" x1="142.67" y1="90.7579" x2="143.046" y2="129.831" gradientUnits="userSpaceOnUse">
<stop stop-color="#949494"/>
<stop offset="0.503125" stop-color="#EDF1F6"/>
<stop offset="1" stop-color="#A3A3A3"/>
</linearGradient>
<linearGradient id="paint1_linear_297_2099" x1="97.9541" y1="65.1935" x2="137.029" y2="65.1935" gradientUnits="userSpaceOnUse">
<stop stop-color="#949494"/>
<stop offset="0.503125" stop-color="#EDF1F6"/>
<stop offset="1" stop-color="#A3A3A3"/>
</linearGradient>
<linearGradient id="paint2_linear_297_2099" x1="45.3303" y1="64.8868" x2="44.954" y2="25.8136" gradientUnits="userSpaceOnUse">
<stop stop-color="#949494"/>
<stop offset="0.503125" stop-color="#EDF1F6"/>
<stop offset="1" stop-color="#A3A3A3"/>
</linearGradient>
<linearGradient id="paint3_linear_297_2099" x1="90.0459" y1="90.4489" x2="50.9709" y2="90.4489" gradientUnits="userSpaceOnUse">
<stop stop-color="#949494"/>
<stop offset="0.503125" stop-color="#EDF1F6"/>
<stop offset="1" stop-color="#A3A3A3"/>
</linearGradient>
</defs>
</svg>
