<svg width="234" height="234" viewBox="0 0 234 234" fill="none" xmlns="http://www.w3.org/2000/svg">
<circle cx="117" cy="117" r="117" fill="white"/>
<path d="M120.609 129.426L203.745 128.626C203.812 148.688 187.604 165.107 167.543 165.3L120.731 165.751L120.609 129.426Z" fill="url(#paint0_linear_484_21)"/>
<path d="M120.609 165.522L120.609 45C140.671 45.126 156.933 61.4912 156.933 81.5528L156.933 165.75L120.609 165.522Z" fill="url(#paint1_linear_484_21)"/>
<path d="M113.258 104.576L30.1217 105.376C30.0545 85.3146 46.2623 68.8949 66.323 68.7017L113.136 68.2509L113.258 104.576Z" fill="url(#paint2_linear_484_21)"/>
<path d="M113.258 68.4776L113.257 189C93.1962 188.874 76.9334 172.509 76.9334 152.447L76.9334 68.2496L113.258 68.4776Z" fill="url(#paint3_linear_484_21)"/>
<defs>
<linearGradient id="paint0_linear_484_21" x1="162.177" y1="129.026" x2="162.527" y2="165.349" gradientUnits="userSpaceOnUse">
<stop stop-color="#949494"/>
<stop offset="0.503125" stop-color="#EDF1F6"/>
<stop offset="1" stop-color="#A3A3A3"/>
</linearGradient>
<linearGradient id="paint1_linear_484_21" x1="120.609" y1="105.261" x2="156.933" y2="105.261" gradientUnits="userSpaceOnUse">
<stop stop-color="#949494"/>
<stop offset="0.503125" stop-color="#EDF1F6"/>
<stop offset="1" stop-color="#A3A3A3"/>
</linearGradient>
<linearGradient id="paint2_linear_484_21" x1="71.6896" y1="104.976" x2="71.3398" y2="68.6534" gradientUnits="userSpaceOnUse">
<stop stop-color="#949494"/>
<stop offset="0.503125" stop-color="#EDF1F6"/>
<stop offset="1" stop-color="#A3A3A3"/>
</linearGradient>
<linearGradient id="paint3_linear_484_21" x1="113.258" y1="128.739" x2="76.9334" y2="128.739" gradientUnits="userSpaceOnUse">
<stop stop-color="#949494"/>
<stop offset="0.503125" stop-color="#EDF1F6"/>
<stop offset="1" stop-color="#A3A3A3"/>
</linearGradient>
</defs>
</svg>
